<svg width="24" height="24" viewBox="0 0 24 24" fill="none" xmlns="http://www.w3.org/2000/svg">
<path d="M11.9857 0C13.6448 0 15.2038 0.31466 16.6627 0.943981C18.1216 1.5733 19.3945 2.43147 20.4815 3.51847C21.5685 4.60548 22.4267 5.87366 23.056 7.323C23.6853 8.77235 24 10.3266 24 11.9857C24 13.6448 23.6853 15.2038 23.056 16.6627C22.4267 18.1216 21.5685 19.3945 20.4815 20.4815C19.3945 21.5685 18.1216 22.4267 16.6627 23.056C15.2038 23.6853 13.6448 24 11.9857 24C10.3266 24 8.77235 23.6853 7.323 23.056C5.87366 22.4267 4.60548 21.5685 3.51847 20.4815C2.43147 19.3945 1.5733 18.1216 0.943981 16.6627C0.31466 15.2038 0 13.6448 0 11.9857C0 10.3266 0.31466 8.77235 0.943981 7.323C1.5733 5.87366 2.43147 4.60548 3.51847 3.51847C4.60548 2.43147 5.87366 1.5733 7.323 0.943981C8.77235 0.31466 10.3266 0 11.9857 0ZM16.5054 5.2348H13.9595C13.4636 5.2348 13.006 5.32062 12.5864 5.49225C12.1669 5.66389 11.7998 5.89273 11.4851 6.17878C11.1704 6.46484 10.9273 6.78903 10.7557 7.15137C10.584 7.51371 10.4982 7.87604 10.4982 8.23838V9.75447H8.23838V12.7294H10.4982V18.7366H13.5018V12.7294H15.733V9.75447H13.5018V8.98212C13.5018 8.75328 13.5924 8.57211 13.7735 8.43862C13.9547 8.30513 14.112 8.23838 14.2455 8.23838H16.5054V5.2348Z" fill="white"/>
<path d="M16.5054 5.2348H13.9595C13.4636 5.2348 13.006 5.32062 12.5864 5.49225C12.1669 5.66389 11.7998 5.89273 11.4851 6.17878C11.1704 6.46484 10.9273 6.78903 10.7557 7.15137C10.584 7.51371 10.4982 7.87604 10.4982 8.23838V9.75447H8.23838V12.7294H10.4982V18.7366H13.5018V12.7294H15.733V9.75447H13.5018V8.98212C13.5018 8.75328 13.5924 8.57211 13.7735 8.43862C13.9547 8.30513 14.112 8.23838 14.2455 8.23838H16.5054V5.2348Z" fill="black"/>
<path d="M16.6233 5.2348V5.11686H16.5054H13.9595C13.4498 5.11686 12.9768 5.20514 12.5418 5.38309C12.1103 5.5596 11.7313 5.7956 11.4058 6.09152C11.0804 6.3873 10.8277 6.72379 10.6491 7.10088C10.4708 7.4773 10.3803 7.85679 10.3803 8.23838V9.63653H8.23838H8.12044V9.75447V12.7294V12.8474H8.23838H10.3803V18.7366V18.8545H10.4982H13.5018H13.6197V18.7366V12.8474H15.733H15.851V12.7294V9.75447V9.63653H15.733H13.6197V8.98212C13.6197 8.79 13.6931 8.64439 13.8435 8.53357C14.017 8.40575 14.1493 8.35632 14.2455 8.35632H16.5054H16.6233V8.23838V5.2348ZM10.4982 9.87241H10.6162V9.75447V8.23838C10.6162 7.89529 10.6973 7.55011 10.8622 7.20186C11.0269 6.85428 11.2605 6.54238 11.5644 6.26605C11.8682 5.98986 12.2234 5.76818 12.6311 5.60141C13.0352 5.4361 13.4775 5.35274 13.9595 5.35274H16.3874V8.12044H14.2455C14.0748 8.12044 13.8925 8.2045 13.7036 8.34367C13.4916 8.49983 13.3838 8.71655 13.3838 8.98212V9.75447V9.87241H13.5018H15.6151V12.6115H13.5018H13.3838V12.7294V18.6187H10.6162V12.7294V12.6115H10.4982H8.35632V9.87241H10.4982ZM11.9857 0.117941C13.6295 0.117941 15.1725 0.4296 16.616 1.05228C18.0616 1.67589 19.322 2.52576 20.3981 3.60187C21.4744 4.67811 22.3242 5.93384 22.9478 7.36998C23.5704 8.80376 23.8821 10.3419 23.8821 11.9857C23.8821 13.6295 23.5704 15.1725 22.9477 16.616C22.3241 18.0616 21.4742 19.322 20.3981 20.3981C19.322 21.4742 18.0616 22.3241 16.616 22.9477C15.1725 23.5704 13.6295 23.8821 11.9857 23.8821C10.3419 23.8821 8.80376 23.5704 7.36998 22.9478C5.93384 22.3242 4.67811 21.4744 3.60187 20.3981C2.52576 19.322 1.67589 18.0616 1.05228 16.616C0.4296 15.1725 0.117941 13.6295 0.117941 11.9857C0.117941 10.3419 0.4296 8.80376 1.05216 7.36998C1.67575 5.93384 2.52563 4.67811 3.60187 3.60187C4.67811 2.52563 5.93384 1.67575 7.36998 1.05216C8.80376 0.4296 10.3419 0.117941 11.9857 0.117941Z" stroke="black" stroke-width="0.235882"/>
</svg>
