<svg width="24" height="24" viewBox="0 0 24 24" fill="none" xmlns="http://www.w3.org/2000/svg">
<path d="M11.871 14.6523C11.5078 14.6523 11.1685 14.5854 10.853 14.4516C10.5376 14.3178 10.2605 14.1314 10.0215 13.8925C9.78256 13.6535 9.59618 13.3716 9.46237 13.0466C9.32855 12.7216 9.26165 12.3775 9.26165 12.0143C9.26165 11.6511 9.32855 11.3118 9.46237 10.9964C9.59618 10.681 9.78256 10.4038 10.0215 10.1649C10.2605 9.92593 10.5376 9.73955 10.853 9.60573C11.1685 9.47192 11.5078 9.40502 11.871 9.40502C12.5974 9.40502 13.2139 9.6583 13.7204 10.1649C14.227 10.6714 14.4803 11.2879 14.4803 12.0143C14.4803 12.3775 14.4134 12.7216 14.2796 13.0466C14.1458 13.3716 13.9594 13.6535 13.7204 13.8925C13.4815 14.1314 13.2043 14.3178 12.8889 14.4516C12.5735 14.5854 12.2342 14.6523 11.871 14.6523ZM16.0573 12.0143C16.0573 11.8423 16.0478 11.6655 16.0287 11.4839C16.0096 11.3023 15.9809 11.135 15.9427 10.9821H17.1183V16.7455C17.1183 16.8984 17.0705 17.0227 16.9749 17.1183C16.8793 17.2139 16.7551 17.2616 16.6021 17.2616H7.13978C6.98686 17.2616 6.8626 17.2139 6.76702 17.1183C6.67145 17.0227 6.62366 16.8984 6.62366 16.7455V10.9821H7.79928C7.76105 11.135 7.73238 11.3023 7.71326 11.4839C7.69415 11.6655 7.68459 11.8423 7.68459 12.0143C7.68459 12.5878 7.7945 13.1326 8.01434 13.6487C8.23417 14.1649 8.53047 14.6141 8.90323 14.9964C9.27599 15.3787 9.72043 15.6798 10.2366 15.8996C10.7527 16.1195 11.2975 16.2294 11.871 16.2294C12.4444 16.2294 12.9892 16.1195 13.5054 15.8996C14.0215 15.6798 14.4659 15.3787 14.8387 14.9964C15.2115 14.6141 15.5078 14.1649 15.7276 13.6487C15.9474 13.1326 16.0573 12.5878 16.0573 12.0143ZM11.9857 0C13.6487 0 15.2067 0.315412 16.6595 0.946237C18.1123 1.57706 19.3835 2.4325 20.4731 3.51254C21.5627 4.59259 22.4229 5.85902 23.0538 7.31183C23.6846 8.76464 24 10.3226 24 11.9857C24 13.6487 23.6846 15.2067 23.0538 16.6595C22.4229 18.1123 21.5627 19.3835 20.4731 20.4731C19.3835 21.5627 18.1123 22.4229 16.6595 23.0538C15.2067 23.6846 13.6487 24 11.9857 24C10.3226 24 8.76464 23.6846 7.31183 23.0538C5.85902 22.4229 4.59259 21.5627 3.51254 20.4731C2.4325 19.3835 1.57706 18.1123 0.946237 16.6595C0.315412 15.2067 0 13.6487 0 11.9857C0 10.3226 0.315412 8.76464 0.946237 7.31183C1.57706 5.85902 2.4325 4.59259 3.51254 3.51254C4.59259 2.4325 5.85902 1.57706 7.31183 0.946237C8.76464 0.315412 10.3226 0 11.9857 0ZM18.6953 6.76702C18.6953 6.32736 18.5424 5.9546 18.2366 5.64875C17.9307 5.34289 17.5579 5.18996 17.1183 5.18996H6.62366C6.18399 5.18996 5.81123 5.34289 5.50538 5.64875C5.19952 5.9546 5.0466 6.32736 5.0466 6.76702V17.2616C5.0466 17.7013 5.19952 18.0741 5.50538 18.3799C5.81123 18.6858 6.18399 18.8387 6.62366 18.8387H17.1183C17.5579 18.8387 17.9307 18.6858 18.2366 18.3799C18.5424 18.0741 18.6953 17.7013 18.6953 17.2616V6.76702ZM16.6021 6.76702C16.7551 6.76702 16.8793 6.81959 16.9749 6.92473C17.0705 7.02987 17.1183 7.1589 17.1183 7.31183V8.88889C17.1183 9.04182 17.0705 9.16607 16.9749 9.26165C16.8793 9.35723 16.7551 9.40502 16.6021 9.40502H15.0251C14.8722 9.40502 14.7431 9.35723 14.638 9.26165C14.5329 9.16607 14.4803 9.04182 14.4803 8.88889V7.31183C14.4803 7.1589 14.5329 7.02987 14.638 6.92473C14.7431 6.81959 14.8722 6.76702 15.0251 6.76702H16.6021Z" fill="white"/>
<path fill-rule="evenodd" clip-rule="evenodd" d="M18.6953 6.76702C18.6953 6.32736 18.5424 5.9546 18.2366 5.64875C17.9307 5.34289 17.5579 5.18996 17.1183 5.18996H6.62366C6.18399 5.18996 5.81123 5.34289 5.50538 5.64875C5.19952 5.9546 5.0466 6.32736 5.0466 6.76702V17.2616C5.0466 17.7013 5.19952 18.0741 5.50538 18.3799C5.81123 18.6858 6.18399 18.8387 6.62366 18.8387H17.1183C17.5579 18.8387 17.9307 18.6858 18.2366 18.3799C18.5424 18.0741 18.6953 17.7013 18.6953 17.2616V6.76702ZM10.853 14.4516C11.1685 14.5854 11.5078 14.6523 11.871 14.6523C12.2342 14.6523 12.5735 14.5854 12.8889 14.4516C13.2043 14.3178 13.4815 14.1314 13.7204 13.8925C13.9594 13.6535 14.1458 13.3716 14.2796 13.0466C14.4134 12.7216 14.4803 12.3775 14.4803 12.0143C14.4803 11.2879 14.227 10.6714 13.7204 10.1649C13.2139 9.6583 12.5974 9.40502 11.871 9.40502C11.5078 9.40502 11.1685 9.47192 10.853 9.60573C10.5376 9.73955 10.2605 9.92593 10.0215 10.1649C9.78256 10.4038 9.59618 10.681 9.46237 10.9964C9.32855 11.3118 9.26165 11.6511 9.26165 12.0143C9.26165 12.3775 9.32855 12.7216 9.46237 13.0466C9.59618 13.3716 9.78256 13.6535 10.0215 13.8925C10.2605 14.1314 10.5376 14.3178 10.853 14.4516ZM16.0287 11.4839C16.0478 11.6655 16.0573 11.8423 16.0573 12.0143C16.0573 12.5878 15.9474 13.1326 15.7276 13.6487C15.5078 14.1649 15.2115 14.6141 14.8387 14.9964C14.4659 15.3787 14.0215 15.6798 13.5054 15.8996C12.9892 16.1195 12.4444 16.2294 11.871 16.2294C11.2975 16.2294 10.7527 16.1195 10.2366 15.8996C9.72043 15.6798 9.27599 15.3787 8.90323 14.9964C8.53047 14.6141 8.23417 14.1649 8.01434 13.6487C7.7945 13.1326 7.68459 12.5878 7.68459 12.0143C7.68459 11.8423 7.69415 11.6655 7.71326 11.4839C7.73238 11.3023 7.76105 11.135 7.79928 10.9821H6.62366V16.7455C6.62366 16.8984 6.67145 17.0227 6.76702 17.1183C6.8626 17.2139 6.98686 17.2616 7.13978 17.2616H16.6021C16.7551 17.2616 16.8793 17.2139 16.9749 17.1183C17.0705 17.0227 17.1183 16.8984 17.1183 16.7455V10.9821H15.9427C15.9809 11.135 16.0096 11.3023 16.0287 11.4839ZM16.9749 6.92473C16.8793 6.81959 16.7551 6.76702 16.6021 6.76702H15.0251C14.8722 6.76702 14.7431 6.81959 14.638 6.92473C14.5329 7.02987 14.4803 7.1589 14.4803 7.31183V8.88889C14.4803 9.04182 14.5329 9.16607 14.638 9.26165C14.7431 9.35723 14.8722 9.40502 15.0251 9.40502H16.6021C16.7551 9.40502 16.8793 9.35723 16.9749 9.26165C17.0705 9.16607 17.1183 9.04182 17.1183 8.88889V7.31183C17.1183 7.1589 17.0705 7.02987 16.9749 6.92473Z" fill="black"/>
<path d="M15.9427 10.8639H15.7912L15.828 11.0108C15.8647 11.1576 15.8925 11.3193 15.9111 11.4962C15.9298 11.674 15.9391 11.8467 15.9391 12.0143C15.9391 12.5723 15.8323 13.1013 15.6188 13.6024C15.4044 14.1058 15.1161 14.5426 14.7541 14.9139C14.3928 15.2844 13.9615 15.5769 13.459 15.7909C12.9579 16.0043 12.4289 16.1112 11.871 16.1112C11.313 16.1112 10.784 16.0043 10.2829 15.7909C9.7804 15.5769 9.34917 15.2844 8.98787 14.9139C8.62583 14.5426 8.3375 14.1058 8.1231 13.6024C7.90965 13.1013 7.80281 12.5723 7.80281 12.0143C7.80281 11.8467 7.81213 11.674 7.83083 11.4962C7.84946 11.3193 7.87727 11.1576 7.91398 11.0108L7.9507 10.8639H7.79928H6.62366H6.50543V10.9821V16.7455C6.50543 16.9253 6.56269 17.0811 6.68343 17.2019C6.80416 17.3226 6.95999 17.3799 7.13978 17.3799H16.6021C16.7819 17.3799 16.9378 17.3226 17.0585 17.2019C17.1792 17.0811 17.2365 16.9253 17.2365 16.7455V10.9821V10.8639H17.1183H15.9427ZM11.871 14.5341C11.5227 14.5341 11.1992 14.47 10.8992 14.3428C10.5976 14.2148 10.3332 14.0369 10.1051 13.8089C9.87763 13.5814 9.69979 13.3127 9.57168 13.0016C9.44395 12.6914 9.37987 12.3626 9.37987 12.0143C9.37987 11.666 9.44395 11.3425 9.5712 11.0426C9.69916 10.741 9.87704 10.4765 10.1051 10.2485C10.3332 10.0204 10.5976 9.84253 10.8992 9.71457C11.1992 9.58732 11.5227 9.52324 11.871 9.52324C12.5665 9.52324 13.1528 9.76442 13.6368 10.2485C14.1209 10.7325 14.3621 11.3188 14.3621 12.0143C14.3621 12.3626 14.298 12.6914 14.1703 13.0016C14.0421 13.3127 13.8643 13.5814 13.6368 13.8089C13.4088 14.0369 13.1443 14.2148 12.8427 14.3428C12.5428 14.47 12.2193 14.5341 11.871 14.5341ZM10.8069 14.5604C11.1378 14.7008 11.4929 14.7706 11.871 14.7706C12.2491 14.7706 12.6042 14.7008 12.9351 14.5604C13.2643 14.4208 13.5542 14.2259 13.804 13.9761C14.0545 13.7256 14.2494 13.4304 14.3889 13.0916C14.5288 12.7519 14.5985 12.3925 14.5985 12.0143C14.5985 11.2571 14.3331 10.6104 13.804 10.0813C13.2749 9.55219 12.6282 9.2868 11.871 9.2868C11.4929 9.2868 11.1378 9.35653 10.8069 9.4969C10.4777 9.63656 10.1877 9.83144 9.93791 10.0813C9.68807 10.3311 9.49319 10.6211 9.35353 10.9502C9.21316 11.2811 9.14343 11.6362 9.14343 12.0143C9.14343 12.3925 9.21316 12.7519 9.35305 13.0916C9.49256 13.4304 9.68748 13.7256 9.93791 13.9761C10.1877 14.2259 10.4777 14.4208 10.8069 14.5604ZM16.1756 12.0143C16.1756 11.8379 16.1658 11.657 16.1462 11.4715C16.1325 11.3411 16.1139 11.2174 16.0904 11.1003H17.0001V16.7455C17.0001 16.8716 16.9617 16.9643 16.8913 17.0347C16.8209 17.1051 16.7282 17.1434 16.6021 17.1434H7.13978C7.01372 17.1434 6.92104 17.1051 6.85062 17.0347C6.7802 16.9643 6.74188 16.8716 6.74188 16.7455V11.1003H7.65155C7.628 11.2174 7.60941 11.3411 7.59569 11.4715C7.57617 11.657 7.56637 11.8379 7.56637 12.0143C7.56637 12.6034 7.67936 13.164 7.90557 13.6951C8.13084 14.224 8.4351 14.6856 8.81858 15.0789C9.2028 15.473 9.66046 15.7828 10.1902 16.0084C10.7213 16.2346 11.2819 16.3476 11.871 16.3476C12.46 16.3476 13.0206 16.2346 13.5517 16.0084C14.0815 15.7828 14.5391 15.473 14.9234 15.0789C15.3068 14.6856 15.6111 14.224 15.8364 13.6951C16.0626 13.164 16.1756 12.6034 16.1756 12.0143ZM18.8136 6.76702C18.8136 6.29658 18.6486 5.89358 18.3202 5.56515C17.9917 5.23672 17.5887 5.07174 17.1183 5.07174H6.62366C6.15322 5.07174 5.75021 5.23672 5.42178 5.56515C5.09335 5.89358 4.92837 6.29658 4.92837 6.76702V17.2616C4.92837 17.7321 5.09335 18.1351 5.42178 18.4635C5.75021 18.792 6.15322 18.9569 6.62366 18.9569H17.1183C17.5887 18.9569 17.9917 18.792 18.3202 18.4635C18.6486 18.1351 18.8136 17.7321 18.8136 17.2616V6.76702ZM18.153 5.73234C18.4362 6.01562 18.5771 6.35813 18.5771 6.76702V17.2616C18.5771 17.6705 18.4362 18.0131 18.153 18.2963C17.8697 18.5796 17.5272 18.7205 17.1183 18.7205H6.62366C6.21477 18.7205 5.87225 18.5796 5.58897 18.2963C5.3057 18.0131 5.16482 17.6705 5.16482 17.2616V6.76702C5.16482 6.35813 5.3057 6.01562 5.58897 5.73234C5.87225 5.44906 6.21477 5.30819 6.62366 5.30819H17.1183C17.5272 5.30819 17.8697 5.44906 18.153 5.73234ZM16.6021 6.88525C16.7246 6.88525 16.8161 6.9258 16.8874 7.00426C16.9616 7.08589 17.0001 7.18587 17.0001 7.31183V8.88889C17.0001 9.01495 16.9617 9.10763 16.8913 9.17805C16.8209 9.24848 16.7282 9.2868 16.6021 9.2868H15.0251C14.8991 9.2868 14.7992 9.24838 14.7175 9.17417C14.6391 9.10285 14.5985 9.01136 14.5985 8.88889V7.31183C14.5985 7.18926 14.6393 7.0906 14.7216 7.00833C14.8039 6.92606 14.9025 6.88525 15.0251 6.88525H16.6021ZM17.0624 6.84521C16.9426 6.71339 16.7855 6.6488 16.6021 6.6488H15.0251C14.8418 6.6488 14.6824 6.71313 14.5544 6.84114C14.4264 6.96914 14.3621 7.12855 14.3621 7.31183V8.88889C14.3621 9.07227 14.4267 9.22929 14.5585 9.34913C14.6871 9.46607 14.8452 9.52324 15.0251 9.52324H16.6021C16.7819 9.52324 16.9378 9.46598 17.0585 9.34525C17.1792 9.22451 17.2365 9.06868 17.2365 8.88889V7.31183C17.2365 7.13194 17.1793 6.97385 17.0624 6.84521ZM11.9857 0.118223C13.6334 0.118223 15.1752 0.430627 16.6124 1.05468C18.0522 1.67985 19.311 2.52713 20.3899 3.59651C21.4685 4.66563 22.3203 5.91944 22.9453 7.35891C23.5694 8.79612 23.8818 10.338 23.8818 11.9857C23.8818 13.6334 23.5694 15.1752 22.9453 16.6124C22.3202 18.052 21.4683 19.3107 20.3895 20.3895C19.3107 21.4683 18.052 22.3202 16.6124 22.9453C15.1752 23.5694 13.6334 23.8818 11.9857 23.8818C10.338 23.8818 8.79612 23.5694 7.35891 22.9453C5.91944 22.3203 4.66563 21.4685 3.59651 20.3899C2.52713 19.311 1.67985 18.0522 1.05468 16.6124C0.430627 15.1752 0.118223 13.6334 0.118223 11.9857C0.118223 10.338 0.430627 8.79612 1.05468 7.35891C1.67981 5.91922 2.52698 4.6653 3.59614 3.59614C4.6653 2.52698 5.91922 1.67981 7.35891 1.05468C8.79612 0.430627 10.338 0.118223 11.9857 0.118223Z" stroke="black" stroke-width="0.236445"/>
</svg>
