<svg width="24" height="24" viewBox="0 0 24 24" fill="none" xmlns="http://www.w3.org/2000/svg">
<rect x="0.12" y="0.12" width="23.76" height="23.76" rx="11.88" fill="white"/>
<mask id="path-2-inside-1_5702_12893" fill="white">
<path d="M19.0794 7.21685C18.1627 7.02461 17.3327 6.55035 16.7102 5.8632C16.0878 5.17606 15.7054 4.31195 15.619 3.39685V3H12.457V15.3032C12.455 15.8479 12.279 16.3783 11.9537 16.8198C11.6285 17.2614 11.1702 17.5919 10.6435 17.765C10.1167 17.9381 9.54785 17.945 9.01687 17.7848C8.48588 17.6245 8.01945 17.3052 7.68312 16.8717C7.34156 16.4309 7.15209 15.8949 7.14218 15.3415C7.13228 14.788 7.30245 14.2458 7.62801 13.7936C7.95358 13.3413 8.41763 13.0025 8.95285 12.8262C9.48808 12.6499 10.0667 12.6454 10.6047 12.8132V9.66363C9.4049 9.50102 8.18328 9.71014 7.11069 10.2618C6.0381 10.8134 5.16819 11.6799 4.62265 12.74C4.0771 13.8002 3.8832 15.0011 4.06807 16.1746C4.25294 17.3482 4.80734 18.4357 5.65371 19.2852C6.46084 20.0948 7.49577 20.6503 8.62637 20.8808C9.75697 21.1112 10.932 21.0061 12.0014 20.5789C13.0708 20.1516 13.9861 19.4217 14.6304 18.4822C15.2748 17.5427 15.6189 16.4362 15.619 15.3041V9.01751C16.8969 9.9132 18.4291 10.3935 20 10.3907V7.31044C19.6906 7.31081 19.3821 7.27944 19.0794 7.21685Z"/>
</mask>
<path d="M19.0794 7.21685C18.1627 7.02461 17.3327 6.55035 16.7102 5.8632C16.0878 5.17606 15.7054 4.31195 15.619 3.39685V3H12.457V15.3032C12.455 15.8479 12.279 16.3783 11.9537 16.8198C11.6285 17.2614 11.1702 17.5919 10.6435 17.765C10.1167 17.9381 9.54785 17.945 9.01687 17.7848C8.48588 17.6245 8.01945 17.3052 7.68312 16.8717C7.34156 16.4309 7.15209 15.8949 7.14218 15.3415C7.13228 14.788 7.30245 14.2458 7.62801 13.7936C7.95358 13.3413 8.41763 13.0025 8.95285 12.8262C9.48808 12.6499 10.0667 12.6454 10.6047 12.8132V9.66363C9.4049 9.50102 8.18328 9.71014 7.11069 10.2618C6.0381 10.8134 5.16819 11.6799 4.62265 12.74C4.0771 13.8002 3.8832 15.0011 4.06807 16.1746C4.25294 17.3482 4.80734 18.4357 5.65371 19.2852C6.46084 20.0948 7.49577 20.6503 8.62637 20.8808C9.75697 21.1112 10.932 21.0061 12.0014 20.5789C13.0708 20.1516 13.9861 19.4217 14.6304 18.4822C15.2748 17.5427 15.6189 16.4362 15.619 15.3041V9.01751C16.8969 9.9132 18.4291 10.3935 20 10.3907V7.31044C19.6906 7.31081 19.3821 7.27944 19.0794 7.21685Z" fill="black"/>
<path d="M15.0276 1.91052L15.0258 1.90962L0.3368 31.8319L0.338635 31.8328L15.0276 1.91052ZM19.0794 7.21685L12.2377 39.8405L12.2834 39.8501L12.3292 39.8596L19.0794 7.21685ZM15.619 3.39685H-17.7143V4.96764L-17.5666 6.53146L15.619 3.39685ZM15.619 3H48.9523V-30.3333H15.619V3ZM12.457 3V-30.3333H-20.8764V3H12.457ZM12.457 15.3032L45.7901 15.4229L45.7903 15.3631V15.3032H12.457ZM7.68312 16.8717L-18.6655 37.2889L-18.6596 37.2964L-18.6538 37.304L7.68312 16.8717ZM10.6047 12.8132L0.678171 44.6342L43.938 58.1291V12.8132H10.6047ZM10.6047 9.66363H43.938V-19.4568L15.0814 -23.3677L10.6047 9.66363ZM5.65371 19.2852L-17.959 42.8128L-17.9535 42.8184L5.65371 19.2852ZM15.619 15.3041L48.9523 15.3062V15.3041H15.619ZM15.619 9.01751L34.751 -18.2786L-17.7143 -55.0518V9.01751H15.619ZM20 10.3907L20.0581 43.724L53.3333 43.666V10.3907H20ZM20 7.31044H53.3333V-26.0633L19.9596 -26.0229L20 7.31044ZM25.9211 -25.4068C31.8154 -24.1707 37.2619 -21.0997 41.4146 -16.5154L-7.9942 28.2418C-2.59658 34.2004 4.5101 38.2199 12.2377 39.8405L25.9211 -25.4068ZM41.4146 -16.5154C45.5764 -11.9211 48.2083 -6.05134 48.8046 0.262233L-17.5666 6.53146C-16.7974 14.6752 -13.4009 22.2732 -7.9942 28.2418L41.4146 -16.5154ZM48.9523 3.39685V3H-17.7143V3.39685H48.9523ZM15.619 -30.3333H12.457V36.3333H15.619V-30.3333ZM-20.8764 3V15.3032H45.7903V3H-20.8764ZM-20.8762 15.1834C-20.8525 8.60244 -18.7227 2.26104 -14.884 -2.95006L38.7915 36.5897C43.2807 30.4955 45.7625 23.0933 45.7901 15.4229L-20.8762 15.1834ZM-14.884 -2.95006C-11.0526 -8.15112 -5.73763 -11.9392 0.238671 -13.9028L21.0483 49.4328C28.0781 47.1231 34.3096 42.6739 38.7915 36.5897L-14.884 -2.95006ZM0.238671 -13.9028C6.20898 -15.8644 12.6344 -15.9415 18.6467 -14.1273L-0.612927 49.6968C6.46131 51.8315 14.0244 51.7406 21.0483 49.4328L0.238671 -13.9028ZM18.6467 -14.1273C24.6645 -12.3113 30.0651 -8.65845 34.02 -3.5606L-18.6538 37.304C-14.0262 43.2689 -7.69269 47.5604 -0.612927 49.6968L18.6467 -14.1273ZM34.0317 -3.54552C38.0578 1.65015 40.3504 8.05488 40.4702 14.7448L-26.1858 15.9381C-26.0462 23.735 -23.3747 31.2117 -18.6655 37.2889L34.0317 -3.54552ZM40.4702 14.7448C40.5899 21.4354 38.5275 27.9245 34.6808 33.2681L-19.4248 -5.68099C-23.9226 0.567143 -26.3254 8.14061 -26.1858 15.9381L40.4702 14.7448ZM34.6808 33.2681C30.8418 38.601 25.4542 42.4862 19.3799 44.4867L-1.47419 -18.8343C-8.61896 -16.4813 -14.9346 -11.9184 -19.4248 -5.68099L34.6808 33.2681ZM19.3799 44.4867C13.3119 46.4851 6.77413 46.5358 0.678171 44.6342L20.5312 -19.0078C13.3592 -21.2451 5.6642 -21.1853 -1.47419 -18.8343L19.3799 44.4867ZM43.938 12.8132V9.66363H-22.7286V12.8132H43.938ZM15.0814 -23.3677C7.1439 -24.4435 -0.964722 -23.0683 -8.13399 -19.3813L22.3554 39.9048C17.3313 42.4886 11.6659 43.4455 6.12794 42.695L15.0814 -23.3677ZM-8.13399 -19.3813C-15.3112 -15.6903 -21.2516 -9.8288 -25.0168 -2.51162L34.2621 27.9917C31.588 33.1885 27.3874 37.317 22.3554 39.9048L-8.13399 -19.3813ZM-25.0168 -2.51162C-28.7871 4.81535 -30.1494 13.1718 -28.8592 21.3617L36.9953 10.9876C37.9158 16.8304 36.9413 22.7851 34.2621 27.9917L-25.0168 -2.51162ZM-28.8592 21.3617C-27.5697 29.5473 -23.7163 37.0347 -17.959 42.8128L29.2664 -4.2425C33.331 -0.163248 36.0756 5.14909 36.9953 10.9876L-28.8592 21.3617ZM-17.9535 42.8184C-12.4716 48.3175 -5.52259 52.0157 1.96963 53.5427L15.2831 -11.7811C20.5141 -10.715 25.3932 -8.12784 29.2609 -4.24805L-17.9535 42.8184ZM1.96963 53.5427C9.45863 55.069 17.2468 54.3782 24.3676 51.5335L-0.364815 -10.3758C4.61714 -12.366 10.0553 -12.8466 15.2831 -11.7811L1.96963 53.5427ZM24.3676 51.5335C31.4939 48.6865 37.7004 43.7792 42.1198 37.3354L-12.859 -0.371065C-9.7283 -4.9358 -5.35239 -8.38324 -0.364815 -10.3758L24.3676 51.5335ZM42.1198 37.3354C46.5449 30.8834 48.9519 23.2128 48.9523 15.3062L-17.7143 15.302C-17.714 9.65962 -15.9953 4.20198 -12.859 -0.371065L42.1198 37.3354ZM48.9523 15.3041V9.01751H-17.7143V15.3041H48.9523ZM-3.51297 36.3136C3.42705 41.1779 11.6702 43.7386 20.0581 43.724L19.9419 -22.9425C25.188 -22.9517 30.3668 -21.3515 34.751 -18.2786L-3.51297 36.3136ZM53.3333 10.3907V7.31044H-13.3333V10.3907H53.3333ZM19.9596 -26.0229C21.9295 -26.0253 23.8965 -25.8256 25.8295 -25.4259L12.3292 39.8596C14.8677 40.3845 17.4517 40.6469 20.0404 40.6437L19.9596 -26.0229Z" fill="black" mask="url(#path-2-inside-1_5702_12893)"/>
<rect x="0.12" y="0.12" width="23.76" height="23.76" rx="11.88" stroke="black" stroke-width="0.24"/>
</svg>
